<?xml version="1.0" standalone="no"?>
<!DOCTYPE svg PUBLIC "-//W3C//DTD SVG 20010904//EN"
 "http://www.w3.org/TR/2001/REC-SVG-20010904/DTD/svg10.dtd">
<svg version="1.0" xmlns="http://www.w3.org/2000/svg"
 width="4096.000000pt" height="4096.000000pt" viewBox="0 0 4096.000000 4096.000000"
 preserveAspectRatio="xMidYMid meet">

<g transform="translate(0.000000,4096.000000) scale(0.100000,-0.100000)"
fill="#000000" stroke="none">
<path d="M0 20480 l0 -20480 20480 0 20480 0 0 20480 0 20480 -20480 0 -20480
0 0 -20480z m28892 12440 c3194 -3197 3446 -3452 3451 -3487 2 -21 4 -2229 3
-4907 l-1 -4868 -3450 -3446 -3450 -3446 -4955 -1 -4955 -1 -46 46 c-26 25
-1584 1581 -3462 3458 l-3416 3414 3 4884 c2 2687 7 4888 11 4892 3 4 448 450
987 992 540 542 2091 2095 3447 3453 l2465 2467 4962 0 4961 0 3445 -3450z
m-16952 -22276 c295 -49 560 -188 774 -408 167 -173 277 -385 342 -661 25
-109 28 -138 28 -315 1 -208 -8 -276 -60 -448 -139 -462 -493 -816 -938 -937
-184 -50 -420 -68 -606 -45 -367 46 -711 236 -914 507 -248 331 -336 770 -245
1224 118 592 615 1035 1231 1099 104 11 264 4 388 -16z m-3785 -13 c149 -29
298 -65 393 -96 l79 -26 16 -127 c9 -70 24 -185 32 -257 8 -71 18 -151 21
-176 l5 -46 -47 -7 c-93 -12 -100 -10 -113 37 -23 76 -84 201 -139 286 -63 95
-122 140 -251 190 -127 49 -228 66 -396 66 -132 0 -162 -4 -248 -28 -237 -65
-376 -154 -515 -331 -143 -181 -227 -435 -235 -712 -14 -455 103 -817 352
-1086 190 -205 434 -301 751 -297 149 2 255 19 349 56 67 26 70 28 73 62 2 20
1 190 -2 377 -6 385 0 359 -88 407 -26 14 -83 32 -127 42 -44 9 -90 18 -102
21 -21 4 -23 10 -23 69 l0 66 138 -8 c231 -13 709 -8 867 10 18 2 20 -5 23
-64 l3 -66 -83 -22 c-97 -27 -124 -40 -157 -75 -33 -35 -37 -100 -35 -525 1
-189 -1 -353 -4 -363 -5 -19 -29 -33 -87 -48 -16 -5 -85 -24 -152 -44 -225
-66 -435 -96 -678 -96 -292 0 -456 30 -690 125 -201 82 -370 206 -502 370
-107 133 -209 337 -253 504 -51 196 -56 547 -10 731 59 236 79 289 168 440
188 319 484 536 854 625 159 38 225 44 473 41 184 -3 252 -8 340 -25z m14450
14 c55 -8 150 -29 210 -45 109 -29 282 -84 290 -91 4 -4 42 -275 65 -458 7
-53 8 -97 3 -102 -5 -5 -41 -11 -80 -15 -66 -6 -73 -5 -79 12 -28 81 -94 216
-134 272 -110 157 -258 228 -495 239 -134 6 -216 -8 -310 -52 -66 -32 -145
-101 -178 -158 -85 -144 -72 -338 31 -463 72 -87 208 -164 492 -276 314 -125
506 -225 628 -330 306 -262 336 -765 64 -1059 -143 -155 -323 -244 -570 -285
-129 -21 -395 -14 -534 15 -114 23 -331 94 -438 143 l-75 35 -38 304 c-22 167
-41 318 -44 335 l-5 31 79 10 c43 6 81 8 85 4 4 -3 23 -53 43 -110 114 -326
265 -489 515 -557 102 -28 323 -26 417 4 137 43 245 139 295 262 19 47 23 74
23 180 0 115 -2 130 -27 182 -35 75 -105 149 -198 210 -89 59 -177 101 -410
198 -327 136 -471 218 -587 335 -122 124 -178 274 -176 470 4 395 268 682 697
760 98 18 321 18 441 0z m6877 -160 c38 -93 144 -350 235 -570 91 -220 244
-593 340 -830 252 -620 361 -882 388 -935 40 -80 98 -117 225 -146 107 -25
100 -19 100 -83 l0 -57 -530 0 -530 1 0 57 0 57 43 11 c191 49 224 71 213 147
-5 40 -248 664 -269 691 -7 9 -116 12 -484 12 l-474 0 -23 -52 c-63 -142 -246
-649 -246 -680 0 -50 23 -66 146 -99 59 -16 112 -33 116 -37 5 -5 8 -31 6 -58
l-3 -49 -415 0 -415 0 0 55 c0 62 -12 54 156 104 47 14 98 35 113 47 44 34 20
-21 491 1149 79 195 186 456 237 580 52 124 150 362 218 530 68 168 128 311
133 318 7 9 33 12 84 10 l75 -3 70 -170z m-9679 123 c25 -106 109 -609 103
-615 -4 -4 -35 -8 -68 -8 -44 0 -63 4 -68 15 -5 8 -32 64 -60 125 -81 170
-187 262 -338 294 -33 7 -189 11 -422 11 l-370 0 0 -525 0 -525 345 0 c286 0
351 3 375 15 36 19 73 93 101 208 l22 88 65 -3 65 -3 -4 -110 c-6 -177 -5
-409 4 -563 l8 -143 -67 3 -67 3 -28 107 c-28 108 -48 158 -77 191 -14 16 -45
17 -379 17 l-364 0 3 -507 c3 -456 5 -511 20 -539 43 -79 118 -94 488 -94 157
0 314 5 349 11 201 32 304 121 431 370 55 108 63 119 88 119 49 0 102 -20 102
-38 0 -20 -156 -652 -161 -655 -2 -1 -469 -1 -1036 1 l-1033 3 0 59 0 59 38
10 c20 5 66 17 102 26 83 21 132 49 156 88 18 31 19 67 21 1022 2 1131 0 1222
-31 1268 -28 43 -95 74 -199 94 l-87 17 0 59 0 59 648 -6 c546 -5 775 -3 1268
12 46 2 52 0 57 -20z m6109 10 l1066 -1 11 -61 c57 -348 92 -588 87 -594 -4
-4 -37 -7 -73 -7 l-66 0 -37 90 c-106 259 -178 331 -369 371 -79 16 -500 36
-514 24 -4 -3 -6 -519 -5 -1146 3 -1116 3 -1140 23 -1179 27 -55 76 -79 211
-105 l114 -23 0 -63 0 -64 -558 0 c-307 0 -561 2 -563 4 -2 3 -2 33 1 67 l5
63 108 22 c129 27 175 49 202 95 20 33 20 54 23 1183 l2 1149 -211 -7 c-116
-4 -249 -13 -296 -22 -201 -35 -287 -119 -384 -378 l-33 -88 -70 6 c-38 4 -72
9 -75 11 -2 3 3 47 13 97 9 51 32 188 52 303 19 116 37 223 40 239 l6 28 112
-7 c61 -3 591 -7 1178 -7z m-10372 -60 l0 -57 -37 -6 c-76 -13 -197 -45 -232
-62 -20 -10 -46 -33 -58 -52 l-23 -34 0 -1083 c0 -1202 -3 -1146 64 -1181 69
-36 603 -42 759 -8 129 27 235 105 305 224 14 24 47 94 74 155 52 122 41 114
141 101 26 -3 47 -10 47 -15 0 -8 -53 -286 -121 -639 -11 -52 -11 -53 -41 -47
-17 3 -469 6 -1005 6 l-974 0 3 62 3 62 85 18 c107 24 183 58 207 94 17 27 18
81 21 1134 2 1037 1 1107 -15 1140 -31 61 -64 75 -290 125 -21 5 -23 11 -23
63 l0 57 555 0 555 0 0 -57z m16964 52 l161 0 85 -117 c155 -217 1093 -1464
1283 -1708 65 -82 122 -151 127 -153 7 -2 10 299 10 849 0 835 0 854 -20 894
-26 55 -87 88 -203 112 l-88 18 3 52 3 53 403 2 402 3 0 -56 0 -57 -74 -16
c-132 -30 -188 -71 -206 -152 -6 -22 -10 -566 -10 -1266 l0 -1228 -40 -1 c-22
-1 -56 -2 -77 -3 -47 -1 39 -112 -1506 1939 -137 182 -253 332 -258 333 -5 2
-9 -379 -9 -985 0 -921 1 -990 18 -1023 24 -47 70 -71 187 -96 l100 -20 3 -60
3 -59 -406 -1 -405 -1 0 59 c0 38 4 60 13 63 6 2 50 14 97 26 66 17 93 30 123
58 35 33 39 42 46 106 4 39 7 540 7 1115 -1 996 -2 1047 -20 1082 -25 51 -91
92 -191 119 l-85 22 0 55 0 55 182 -6 c99 -4 254 -7 342 -7z m2164 -3948 l3
-72 -14173 0 c-8082 0 -14179 4 -14187 9 -8 5 -16 33 -18 70 l-5 61 219 2
c120 2 6505 3 14188 3 l13970 0 3 -73z m-18568 -1201 c81 -33 87 -41 65 -91
-10 -22 -20 -40 -23 -40 -3 0 -35 12 -71 27 -56 23 -81 27 -166 28 -118 0
-173 -19 -205 -70 -49 -79 -7 -158 103 -194 34 -11 103 -30 152 -42 103 -24
193 -68 222 -107 65 -88 50 -225 -34 -304 -53 -51 -118 -72 -234 -76 -144 -6
-273 25 -343 81 l-28 23 21 42 c12 23 24 42 27 42 3 0 24 -11 47 -24 77 -44
145 -61 247 -61 78 0 103 4 140 22 103 51 107 168 9 218 -16 9 -87 31 -158 50
-151 40 -192 56 -239 92 -92 70 -97 230 -9 321 69 73 137 93 297 88 101 -2
136 -7 180 -25z m8641 1 c30 -12 63 -28 73 -35 17 -13 17 -15 -3 -56 -17 -33
-26 -41 -39 -36 -94 39 -133 48 -217 49 -153 2 -228 -44 -228 -141 0 -34 6
-50 28 -73 31 -33 73 -49 225 -85 184 -45 249 -87 276 -183 27 -91 -6 -190
-81 -248 -109 -83 -370 -87 -525 -9 -70 35 -75 46 -50 94 11 23 23 41 27 41 3
0 25 -11 47 -24 108 -62 278 -81 378 -43 119 46 118 183 -2 231 -21 8 -94 29
-161 46 -180 46 -240 81 -274 162 -43 105 6 237 108 290 80 41 117 48 242 45
94 -3 132 -8 176 -25z m2692 13 c86 -22 198 -86 197 -112 0 -4 -16 -25 -35
-46 l-35 -37 -51 35 c-72 49 -145 68 -238 63 -135 -8 -233 -74 -287 -191 -24
-53 -28 -75 -28 -147 0 -72 4 -94 28 -146 34 -76 93 -135 169 -170 54 -24 67
-26 155 -22 102 4 146 19 220 75 l34 25 34 -33 c19 -18 34 -38 34 -45 0 -27
-120 -98 -205 -120 -78 -21 -224 -18 -296 6 -136 46 -233 141 -277 270 -58
170 -23 346 92 468 93 99 194 141 341 141 50 1 117 -6 148 -14z m3002 -14
c135 -59 205 -200 205 -410 -1 -238 -99 -393 -284 -446 -76 -22 -250 -17 -313
10 -43 17 -43 17 -27 44 37 63 35 61 94 44 72 -21 201 -14 255 14 49 26 96 75
123 128 20 40 49 192 38 202 -3 3 -27 -11 -54 -31 -76 -55 -116 -69 -207 -68
-189 0 -305 101 -305 264 0 82 18 129 68 181 70 73 142 98 267 93 65 -2 104
-9 140 -25z m-21417 -28 l-3 -48 -90 -2 c-49 -1 -163 -2 -252 -2 l-162 -1 0
-122 c0 -68 3 -140 6 -160 l6 -38 218 0 219 0 0 -45 0 -45 -222 -2 -223 -3 -3
-181 c-3 -202 0 -195 -72 -184 l-35 5 -3 438 -2 437 310 0 311 0 -3 -47z m442
-393 l0 -440 -55 0 -55 0 0 440 0 440 55 0 55 0 0 -440z m547 408 c16 -18 77
-91 134 -163 146 -183 360 -439 371 -443 4 -2 8 141 8 317 l0 321 60 0 60 0 0
-441 0 -440 -52 3 -53 3 -93 115 c-52 63 -146 180 -210 260 -63 80 -141 176
-171 214 l-56 69 -3 -331 -2 -332 -60 0 -60 0 0 440 0 440 48 0 c41 0 52 -5
79 -32z m1653 -18 l0 -50 -250 0 -250 0 0 -140 0 -140 228 -2 227 -3 3 -47 3
-48 -231 0 -231 0 3 -147 3 -148 258 -3 257 -2 0 -50 0 -50 -320 0 -320 0 0
440 0 440 310 0 310 0 0 -50z m1361 30 c188 -59 268 -243 183 -417 -60 -124
-184 -173 -441 -173 l-123 0 0 -135 0 -135 -60 0 -60 0 0 440 0 440 219 0
c191 0 227 -3 282 -20z m1169 -30 l0 -50 -255 0 -255 0 0 -140 0 -140 228 -2
227 -3 3 -47 3 -48 -228 -2 -228 -3 0 -145 0 -145 263 -3 262 -2 0 -50 0 -50
-325 0 -325 0 0 440 0 440 315 0 315 0 0 -50z m912 12 c111 -54 161 -135 161
-262 1 -121 -56 -219 -151 -261 -18 -8 -32 -18 -32 -22 0 -5 43 -71 95 -148
52 -76 95 -140 95 -144 0 -3 -28 -5 -63 -5 l-63 0 -90 133 -89 132 -149 3
-149 3 5 -136 5 -135 -63 0 -64 0 0 441 0 441 243 -4 243 -3 66 -33z m1570
-169 c0 -115 1 -217 1 -228 0 -11 -1 -116 -2 -232 l-1 -213 -60 0 -60 0 0 440
0 440 60 0 60 0 2 -207z m824 185 c4 -12 92 -207 195 -432 104 -225 189 -413
189 -418 0 -4 -28 -8 -63 -8 l-63 0 -49 110 -48 110 -240 -2 -240 -3 -46 -107
-46 -108 -62 0 c-35 0 -63 3 -63 7 0 7 161 366 308 688 30 66 61 135 68 153
14 32 15 32 83 32 63 0 70 -2 77 -22z m834 -50 c114 -149 449 -559 455 -559 6
1 11 199 14 494 l1 137 60 0 60 0 0 -440 0 -440 -53 0 -54 0 -261 325 c-143
179 -264 320 -267 315 -4 -6 -3 -152 1 -325 l7 -315 -67 0 -66 0 0 440 0 440
58 0 57 -1 55 -71z m2100 22 l0 -50 -155 0 -155 0 0 -389 0 -390 -44 -6 c-88
-14 -81 -50 -84 393 l-2 392 -150 0 -150 0 0 50 0 50 370 0 370 0 0 -50z m910
0 l0 -50 -247 -2 -248 -3 0 -135 0 -135 225 -5 225 -5 3 -44 c2 -28 -1 -47
-10 -52 -7 -5 -111 -9 -231 -9 l-218 0 3 -141 3 -141 255 -1 255 -2 3 -52 3
-53 -320 0 -321 0 0 440 0 440 310 0 310 0 0 -50z m903 -232 c70 -156 154
-344 188 -418 92 -204 90 -181 13 -178 l-66 3 -47 105 -47 105 -239 0 -240 0
-45 -107 -45 -107 -68 -1 -67 0 14 33 c8 17 85 190 171 382 86 193 168 376
182 408 l26 57 72 0 72 0 126 -282z m3077 -158 l0 -440 -22 0 c-13 0 -40 -3
-60 -6 l-38 -7 0 447 0 446 60 0 60 0 0 -440z m604 327 c210 -266 422 -526
429 -527 4 0 7 144 7 320 l0 320 65 0 65 0 0 -440 0 -440 -55 0 -54 0 -263
328 -263 327 -3 -327 -2 -328 -65 0 -65 0 0 440 0 440 58 0 57 -1 89 -112z
m2666 63 l0 -50 -252 -2 -253 -3 0 -135 0 -135 225 -5 225 -5 3 -47 3 -48
-228 -2 -228 -3 0 -145 0 -145 257 -3 256 -2 4 -46 c2 -25 1 -47 -1 -50 -2 -2
-148 -4 -323 -4 l-318 0 0 440 0 440 315 0 315 0 0 -50z m1040 -390 l0 -440
-60 0 -60 0 0 390 0 390 -95 0 -95 0 0 50 0 50 155 0 155 0 0 -440z m1860 390
l0 -50 -199 0 -199 0 -6 -47 c-3 -27 -8 -83 -12 -125 -7 -91 -18 -84 146 -91
123 -6 181 -23 240 -74 56 -48 80 -101 80 -181 0 -112 -47 -188 -149 -235 -56
-27 -80 -32 -162 -35 -112 -5 -183 8 -265 48 -93 45 -91 41 -60 95 15 25 31
45 34 43 148 -78 243 -100 338 -79 164 37 202 219 61 293 -38 20 -59 23 -207
26 -91 2 -168 7 -171 10 -4 4 2 97 12 207 10 110 18 210 19 223 l0 22 250 0
250 0 0 -50z m777 -72 c-250 -326 -327 -432 -320 -438 4 -3 81 -4 170 -2 l162
4 3 92 3 91 57 3 57 3 3 -98 3 -98 83 -3 82 -3 0 -44 0 -45 -85 0 -85 0 0
-110 0 -110 -55 0 -55 0 -1 90 c-1 50 -3 95 -4 100 -1 6 -3 15 -4 20 -1 6 -90
10 -246 10 l-245 0 0 43 c0 41 12 59 218 330 l217 287 68 0 68 0 -94 -122z
m-8872 -350 c33 -39 32 -73 -4 -109 -83 -82 -212 30 -132 115 40 43 97 40 136
-6z"/>
<path d="M15817 35932 l-128 -3 -3315 -3312 -3314 -3312 -1 -4739 0 -4739
1843 -1840 c2839 -2833 4394 -4384 4604 -4591 l192 -188 1108 1 c610 0 2765 1
4789 1 l3680 1 970 965 c534 531 2026 2021 3318 3312 l2347 2347 0 4735 1
4735 -3318 3312 -3318 3312 -4105 2 c-2258 1 -4357 2 -4665 3 -308 0 -618 0
-688 -2z m12407 -3684 l3156 -3163 0 -4520 0 -4520 -3155 -3155 -3155 -3155
-3782 0 c-2081 0 -4144 2 -4585 5 l-803 5 -2242 2240 c-1234 1232 -2656 2651
-3160 3153 l-917 913 -1 4513 0 4514 722 724 c4740 4749 5586 5594 5608 5599
14 4 2080 7 4592 8 l4566 1 3156 -3162z"/>
<path d="M14760 33982 c-669 -669 -2062 -2062 -3097 -3094 l-1882 -1877 -1
-4442 -1 -4443 28 -30 c15 -17 1412 -1411 3103 -3098 l3075 -3068 4498 0 4498
1 3032 3027 c1668 1665 3062 3057 3100 3092 l67 65 1 4450 0 4450 -3097 3093
-3098 3092 -4505 0 -4506 0 -1215 -1218z m11281 -2764 c1064 -1063 2190 -2190
2502 -2503 l567 -570 0 -3587 0 -3586 -2496 -2496 -2495 -2496 -3633 0 -3633
0 -69 73 c-39 39 -1162 1163 -2497 2497 l-2427 2424 0 3589 0 3588 2475 2478
c1361 1363 2481 2485 2488 2494 14 19 55 20 4712 25 l2571 3 1935 -1933z"/>
<path d="M14663 30357 l-2367 -2365 2 -2044 c1 -1123 2 -2669 2 -3433 l0
-1390 1298 -1298 c1510 -1510 3387 -3376 3413 -3395 15 -10 205 -13 954 -15
514 -1 934 1 933 4 -2 3 -37 34 -78 69 -41 35 -136 123 -210 196 l-135 132
-649 5 -649 6 -2239 2238 -2238 2238 0 3050 c0 1678 3 3143 6 3256 l7 206 125
129 c68 71 1075 1080 2236 2242 l2111 2114 3298 1 3297 2 2239 -2240 2239
-2240 7 -205 c3 -113 5 -1581 3 -3263 l-3 -3057 -2240 -2240 -2240 -2240 -960
0 c-991 0 -1179 5 -1415 41 -200 30 -648 135 -672 158 -4 3 663 6 1482 6
l1489 0 2182 2180 2181 2180 -6 2145 c-3 1180 -6 2612 -6 3184 l0 1038 -1053
1052 c-580 578 -1561 1556 -2182 2174 l-1128 1122 -2266 0 c-1246 1 -2693 1
-3216 1 l-950 -1 -1159 -1157 c-637 -637 -1619 -1619 -2182 -2183 l-1024
-1025 0 -3176 0 -3176 2179 -2181 2179 -2182 531 0 c292 0 531 2 531 5 0 3
-20 31 -43 62 -128 170 -266 401 -392 658 -188 384 -303 749 -379 1205 -40
238 -60 565 -52 850 16 626 139 1212 387 1846 73 187 262 588 379 805 572
1062 1505 2147 2820 3280 415 357 1170 943 1495 1159 108 71 112 76 30 39
-907 -411 -1687 -875 -2423 -1442 -524 -403 -985 -842 -1383 -1317 -351 -417
-622 -794 -872 -1210 -74 -124 -173 -297 -220 -384 -70 -129 -87 -155 -91
-135 -9 43 -46 321 -61 459 -70 653 -30 1336 111 1889 157 615 392 1095 768
1567 114 143 407 431 581 570 696 556 1516 921 3120 1388 762 222 1179 368
1545 543 351 168 674 378 835 542 27 28 53 51 57 51 4 0 8 -27 8 -59 0 -33 8
-167 17 -298 21 -295 24 -1047 5 -1283 -74 -909 -194 -1510 -449 -2245 -140
-404 -364 -851 -627 -1250 -210 -318 -388 -537 -651 -800 -345 -346 -694 -608
-1130 -850 -641 -356 -1305 -589 -2149 -754 -347 -68 -869 -141 -1018 -141
-82 0 -82 0 -151 -159 -257 -584 -359 -1091 -344 -1711 11 -423 63 -737 179
-1079 179 -526 428 -910 863 -1333 267 -258 578 -477 905 -635 350 -169 767
-301 1160 -367 369 -62 299 -59 1605 -63 l1200 -3 775 772 c426 425 1487 1484
2357 2353 l1583 1579 0 2676 c0 1471 0 3017 0 3434 l0 759 -2362 2358 -2363
2359 -815 0 c-448 -1 -2004 2 -3457 6 l-2643 6 -2367 -2365z"/>
<path d="M11505 10449 c-385 -56 -641 -337 -731 -804 -27 -137 -24 -442 5
-598 58 -318 206 -626 378 -788 182 -172 363 -238 613 -226 368 18 631 230
760 612 61 180 75 279 75 515 -1 194 -4 227 -28 341 -65 305 -189 554 -361
723 -186 184 -440 264 -711 225z"/>
<path d="M29207 10033 c-8 -15 -83 -208 -167 -428 -84 -220 -167 -438 -186
-484 -19 -47 -34 -91 -34 -98 0 -10 78 -13 405 -13 223 0 405 3 405 8 0 4 -21
59 -46 122 -25 63 -115 295 -201 515 -85 220 -157 402 -158 403 -2 2 -10 -9
-18 -25z"/>
<path d="M6330 6673 c0 -22 2 -25 10 -13 13 20 13 40 0 40 -5 0 -10 -12 -10
-27z"/>
<path d="M6370 6670 c0 -5 7 -10 16 -10 8 0 12 5 9 10 -3 6 -10 10 -16 10 -5
0 -9 -4 -9 -10z"/>
<path d="M6420 6664 c0 -8 5 -12 10 -9 6 3 10 10 10 16 0 5 -4 9 -10 9 -5 0
-10 -7 -10 -16z"/>
<path d="M6535 6670 c4 -6 11 -8 16 -5 14 9 11 15 -7 15 -8 0 -12 -5 -9 -10z"/>
<path d="M6751 6671 c-7 -5 -12 -14 -10 -20 2 -6 10 -2 17 9 14 22 13 23 -7
11z"/>
<path d="M6660 6650 c0 -11 2 -20 4 -20 2 0 6 9 9 20 3 11 1 20 -4 20 -5 0 -9
-9 -9 -20z"/>
<path d="M6846 6645 c-3 -8 -1 -15 4 -15 13 0 22 18 11 24 -5 3 -11 -1 -15 -9z"/>
<path d="M30170 5368 c-62 -32 -90 -77 -90 -145 0 -92 48 -151 140 -173 91
-22 167 -1 228 61 60 61 61 143 5 210 -59 70 -193 92 -283 47z"/>
<path d="M12642 5178 l3 -203 140 3 c155 4 196 11 245 44 55 38 74 71 78 141
6 103 -48 179 -147 207 -20 5 -100 10 -179 10 l-142 0 2 -202z"/>
<path d="M14674 5366 c-8 -21 3 -373 12 -388 5 -7 50 -9 153 -4 131 6 152 10
201 34 71 35 100 82 100 164 0 93 -27 140 -105 181 -35 18 -61 22 -197 25
-138 4 -159 2 -164 -12z"/>
<path d="M17399 5323 c-5 -16 -46 -109 -90 -208 -43 -99 -79 -183 -79 -188 0
-4 86 -7 191 -7 110 0 189 4 187 9 -24 65 -185 420 -191 421 -4 0 -12 -12 -18
-27z"/>
<path d="M21947 5142 c-48 -114 -87 -210 -87 -214 0 -11 370 -10 370 1 0 5
-37 94 -83 197 -46 104 -86 197 -90 207 -3 9 -10 17 -14 17 -4 -1 -47 -94 -96
-208z"/>
</g>
</svg>
